<svg xmlns="http://www.w3.org/2000/svg" viewBox="0 0 43.391 43.31">
  <defs>
    <style>
      .cls-1 {
        fill: #fff;
      }

      .cls-2 {
        fill: #12607f;
      }

      .cls-3 {
        fill: #82b7e1;
      }

      .cls-4 {
        fill: #86b9e2;
      }

      .cls-5 {
        fill: #bad1da;
      }

      .cls-6 {
        fill: #236b88;
      }
    </style>
  </defs>
  <g id="Group_4233" data-name="Group 4233" transform="translate(0)">
    <path id="Path_4146" data-name="Path 4146" class="cls-1" d="M18.539,42.2H4.7V66.962H21.95V45.548A3.34,3.34,0,0,0,18.539,42.2Z" transform="translate(-3.947 -35.441)"/>
    <path id="Path_4147" data-name="Path 4147" class="cls-2" d="M18.772,63.784H0V37.5H14.656a4.088,4.088,0,0,1,4.1,4.1l.016,22.184ZM1.522,62.262H17.25V41.6a2.557,2.557,0,0,0-2.579-2.579H1.522Z" transform="translate(0 -31.494)"/>
    <path id="Path_4148" data-name="Path 4148" class="cls-1" d="M21.3,78.181V58.8H32.464a.684.684,0,0,1,.689.689V78.181Z" transform="translate(-17.888 -49.382)"/>
    <path id="Path_4149" data-name="Path 4149" class="cls-1" d="M115.748,42.2h13.9V66.962H112.4V45.548A3.326,3.326,0,0,1,115.748,42.2Z" transform="translate(-94.397 -35.441)"/>
    <path id="Path_4150" data-name="Path 4150" class="cls-2" d="M126.456,63.784H107.7V41.6a4.088,4.088,0,0,1,4.1-4.1h14.656V63.784Zm-17.234-1.522H124.95V39.022H111.8a2.557,2.557,0,0,0-2.579,2.579V62.262Z" transform="translate(-90.45 -31.494)"/>
    <g id="Group_3822" data-name="Group 3822" transform="translate(7.176 0.753)">
      <path id="Path_4151" data-name="Path 4151" class="cls-1" d="M129,78.181V59.489a.684.684,0,0,1,.689-.689h11.164V78.181Z" transform="translate(-115.514 -50.135)"/>
      <rect id="Rectangle_6023" data-name="Rectangle 6023" class="cls-1" width="4.405" height="3.876"/>
    </g>
    <path id="Path_4152" data-name="Path 4152" class="cls-2" d="M45.558,5.4h-4.4a.715.715,0,0,1-.753-.753V.753a.7.7,0,0,1,.224-.529A.676.676,0,0,1,41.153,0h4.4a.715.715,0,0,1,.753.753V4.629A.825.825,0,0,1,45.558,5.4ZM41.826,3.876h2.883V1.522H41.826Z" transform="translate(-33.929 0)"/>
    <path id="Path_4153" data-name="Path 4153" class="cls-3" d="M44.435,235.3H37.9l3.267,4.853Z" transform="translate(-31.83 -197.612)"/>
    <path id="Path_4154" data-name="Path 4154" class="cls-2" d="M37.341,237.311h0a.93.93,0,0,1-.609-.3l-3.267-4.869a.961.961,0,0,1-.08-.753.808.808,0,0,1,.689-.384h6.535a.793.793,0,0,1,.689.384.59.59,0,0,1-.08.753l-3.267,4.869C37.886,237.231,37.646,237.311,37.341,237.311Zm-1.81-4.869,1.826,2.739,1.81-2.739Z" transform="translate(-28.003 -194)"/>
    <rect id="Rectangle_6024" data-name="Rectangle 6024" class="cls-1" width="6.535" height="33.123" transform="translate(6.07 4.629)"/>
    <path id="Path_4155" data-name="Path 4155" class="cls-2" d="M40.488,58.765H33.953a.715.715,0,0,1-.753-.753V24.953a.715.715,0,0,1,.753-.753h6.535a.715.715,0,0,1,.753.753V58.076A.683.683,0,0,1,40.488,58.765Zm-5.766-1.522h5.013V25.722H34.722Z" transform="translate(-27.882 -20.324)"/>
    <rect id="Rectangle_6025" data-name="Rectangle 6025" class="cls-4" width="2.435" height="29.023" transform="translate(8.137 6.615)"/>
    <path id="Path_4156" data-name="Path 4156" class="cls-3" d="M176.746,237.718H162.459a2.694,2.694,0,0,1-2.659-2.659h0a2.694,2.694,0,0,1,2.659-2.659h14.367v5.318Z" transform="translate(-134.205 -195.176)"/>
    <path id="Path_4157" data-name="Path 4157" class="cls-2" d="M158.612,227.616a3.412,3.412,0,0,0,0,6.823h15.12V227.6h-15.12Zm13.518,5.318H158.612a1.906,1.906,0,0,1,0-3.812h13.6v3.8h-.08Z" transform="translate(-130.341 -191.145)"/>
    <rect id="Rectangle_6026" data-name="Rectangle 6026" class="cls-1" width="13.679" height="17.25" transform="translate(28.863 20.053)"/>
    <path id="Path_4158" data-name="Path 4158" class="cls-2" d="M190.7,139.192H175.5V120.5h15.2v18.692Zm-13.679-1.522h12.157V122.022H177.022Z" transform="translate(-147.39 -101.199)"/>
    <path id="Path_4159" data-name="Path 4159" class="cls-5" d="M162.559,125.2a2.694,2.694,0,0,0-2.659,2.659v17.17a2.694,2.694,0,0,1,2.659-2.659h.689V125.2Z" transform="translate(-134.289 -105.147)"/>
    <path id="Path_4160" data-name="Path 4160" class="cls-2" d="M156.622,141.082H155.1v-17.17a3.394,3.394,0,0,1,3.412-3.412h1.442v18.772h-1.442A1.761,1.761,0,0,0,156.622,141.082Zm1.746-19.06a1.975,1.975,0,0,0-1.826,1.906V138.3a3.7,3.7,0,0,1,1.826-.609Z" transform="translate(-130.257 -101.199)"/>
    <rect id="Rectangle_6027" data-name="Rectangle 6027" class="cls-6" width="7.832" height="4.709" transform="translate(31.826 23.017)"/>
    <g id="Group_3823" data-name="Group 3823" transform="translate(22.712 11.548)">
      <rect id="Rectangle_6028" data-name="Rectangle 6028" class="cls-2" width="4.709" height="1.522" transform="translate(10.715 13.07)"/>
      <rect id="Rectangle_6029" data-name="Rectangle 6029" class="cls-2" width="7.832" height="1.522"/>
      <rect id="Rectangle_6030" data-name="Rectangle 6030" class="cls-2" width="1.361" height="1.522" transform="translate(3.187 3.043)"/>
      <rect id="Rectangle_6031" data-name="Rectangle 6031" class="cls-2" width="1.361" height="1.522" transform="translate(6.455 3.043)"/>
      <rect id="Rectangle_6032" data-name="Rectangle 6032" class="cls-2" width="1.361" height="1.522" transform="translate(0 3.043)"/>
    </g>
  </g>
</svg>
