<?xml version="1.0" encoding="utf-8"?>
<!-- Generator: Adobe Illustrator 22.1.0, SVG Export Plug-In . SVG Version: 6.00 Build 0)  -->
<svg version="1.1" xmlns="http://www.w3.org/2000/svg" xmlns:xlink="http://www.w3.org/1999/xlink" x="0px" y="0px"
	 viewBox="0 0 576 373" style="enable-background:new 0 0 576 373;" xml:space="preserve">
<style type="text/css">
	.st0{fill:none;stroke:#CFF45B;stroke-linecap:round;stroke-miterlimit:10;}
	.st1{fill:url(#SVGID_1_);}
	.st2{fill:#77767E;}
	.st3{enable-background:new    ;}
	.st4{fill:#ACABB1;}
	.st5{fill:#C6C5CB;}
	.st6{fill:url(#SVGID_2_);}
	.st7{fill:#38CFCA;}
	.st8{fill:#D8D8DA;}
	.st9{fill:#36BFB8;}
	.st10{fill:url(#SVGID_3_);}
	.st11{fill:#FEDAAA;}
	.st12{fill:#9C9CA0;}
	.st13{fill:#40E2DA;}
	.st14{fill:url(#SVGID_4_);}
	.st15{fill:#3FD8CD;}
	.st16{fill:url(#SVGID_5_);}
	.st17{fill:#8964C5;}
	.st18{fill:#31A89F;}
	.st19{fill:#48F7EA;}
	.st20{display:none;fill:#5DDDD3;}
	.st21{clip-path:url(#SVGID_7_);fill:#FF5B61;}
	.st22{clip-path:url(#SVGID_7_);fill:#20D0C2;}
	.st23{clip-path:url(#SVGID_7_);fill:#FE705F;}
	.st24{clip-path:url(#SVGID_7_);fill:#CFF45B;}
	.st25{fill:#868589;}
	.st26{fill:#EDCF37;}
	.st27{fill:#FE705F;}
	.st28{fill:#FF5B61;}
	.st29{fill:#CFF45B;}
	.st30{fill:#ECF0F1;}
	.st31{fill:#FFFFFF;}
	.st32{fill:#D8B935;}
	.st33{fill:url(#SVGID_8_);}
	.st34{fill:#D0CFD3;}
	.st35{opacity:0.5;}
	.st36{fill:url(#SVGID_9_);}
	.st37{fill:#C3CCCF;}
	.st38{fill:#C8CACC;}
	.st39{fill:url(#SVGID_10_);}
	.st40{fill:url(#SVGID_11_);}
	.st41{opacity:0.6;}
	.st42{fill:url(#SVGID_12_);}
	.st43{fill:url(#SVGID_13_);}
	.st44{fill:url(#SVGID_14_);}
	.st45{fill:url(#SVGID_15_);}
	.st46{fill:url(#SVGID_16_);}
	.st47{fill:url(#SVGID_17_);}
	.st48{fill:url(#SVGID_18_);}
</style>
<g id="Layer_23">
	<path class="st0" d="M151.7,233.3l71.3,43.9l47.9-28.9c2.6-1.6,2.7-5.4,0.1-7l-1.6-1"/>
	<path class="st0" d="M268.2,179.6l57.4-32.8c2.7-1.6,6.1-1.6,8.8,0l42.2,24"/>
	<polyline class="st0" points="341,251.3 361.9,263.4 397.2,243.5 	"/>
</g>
<g id="Layer_3">
	<linearGradient id="SVGID_1_" gradientUnits="userSpaceOnUse" x1="304.3672" y1="177.0315" x2="323.1667" y2="209.5932">
		<stop  offset="0" style="stop-color:#2FADA9"/>
		<stop  offset="1" style="stop-color:#38CFCA"/>
	</linearGradient>
	<path class="st1" d="M361.2,179.4c3.8,2.2,3.9,5.8,0,8l-57.5,33.4c-3.8,2.2-10,2.2-13.9,0l-23.5-13.6c-3.8-2.2-3.9-5.8,0-8
		l57.5-33.4c3.8-2.2,10-2.2,13.9,0L361.2,179.4z"/>
</g>
<g id="Layer_4">
	<path class="st2" d="M363.3,172.3c0.1-1.5-0.9-3-2.9-4.2l-23.5-13.6c-3.8-2.2-10.1-2.2-13.9,0L265.5,188c-1.9,1.1-2.9,2.6-2.9,4
		c0,0,0,0,0,0l0,2.5c0,1.5,1,2.9,2.9,4.1L289,212c3.8,2.2,10.1,2.2,13.9,0l57.5-33.4c1.9-1.1,2.9-2.5,2.9-4l0-2.5
		C363.3,172.2,363.3,172.2,363.3,172.3z"/>
	<g class="st3">
		<path class="st4" d="M363.3,172.1l0,2.5c0,1.4-1,2.9-2.9,4l0-2.5C362.4,175,363.3,173.6,363.3,172.1z"/>
		<path class="st5" d="M262.7,194.4l0-2.5c0,1.5,1,2.9,2.9,4.1l0,2.5C263.6,197.3,262.7,195.9,262.7,194.4z"/>
		<polygon class="st4" points="360.5,176.1 360.4,178.6 302.9,212 302.9,209.6 		"/>
		<polygon class="st4" points="289,209.6 289,212 265.6,198.5 265.6,196 		"/>
		<path class="st5" d="M302.9,209.6l0,2.5c-3.8,2.2-10,2.2-13.9,0l0-2.5C292.9,211.8,299.1,211.8,302.9,209.6z"/>
		<linearGradient id="SVGID_2_" gradientUnits="userSpaceOnUse" x1="303.5916" y1="165.767" x2="322.3911" y2="198.3287">
			<stop  offset="0" style="stop-color:#FFFFFF"/>
			<stop  offset="1" style="stop-color:#A7D6D9"/>
		</linearGradient>
		<path class="st6" d="M360.4,168.1c3.8,2.2,3.9,5.8,0,8l-57.5,33.4c-3.8,2.2-10,2.2-13.9,0L265.6,196c-3.8-2.2-3.9-5.8,0-8
			l57.5-33.4c3.8-2.2,10-2.2,13.9,0L360.4,168.1z"/>
	</g>
	<polygon class="st7" points="355.3,174.9 324.6,157.2 271.4,188 302.1,205.7 	"/>
	<path class="st5" d="M348.6,166l-9-5.2c-0.4-0.2-1-0.2-1.4,0c-0.4,0.2-0.4,0.6,0,0.8l9,5.2c0.4,0.2,1,0.2,1.4,0
		C349,166.6,349,166.2,348.6,166"/>
	<path class="st8" d="M355,179.8l-8.1,4.7c-0.4,0.2-0.7,0.7-0.7,1.1c0,0.4,0.3,0.6,0.7,0.4l8.1-4.7c0.4-0.2,0.7-0.7,0.7-1.1
		C355.6,179.8,355.3,179.6,355,179.8"/>
	<path class="st8" d="M351.3,167.4c-0.4-0.3-1.2-0.3-1.6,0c-0.4,0.3-0.4,0.7,0,0.9c0.4,0.3,1.2,0.3,1.6,0
		C351.8,168.1,351.8,167.6,351.3,167.4"/>
	<path class="st5" d="M350.8,167.7c-0.2-0.1-0.4-0.1-0.6,0c-0.2,0.1-0.2,0.2,0,0.3c0.2,0.1,0.4,0.1,0.6,0
		C351,167.9,351,167.8,350.8,167.7"/>
	<path class="st8" d="M275.1,199.2c-0.9-0.5-0.9-1.4,0-1.9l2.2-1.3c0.9-0.5,2.4-0.5,3.3,0l6.3,3.6c0.9,0.5,0.9,1.4,0,1.9l-2.2,1.3
		c-0.9,0.5-2.4,0.5-3.4,0L275.1,199.2 M287.3,199.3l-6.3-3.6c-1.2-0.7-3.1-0.7-4.2,0l-2.2,1.3c-1.2,0.7-1.2,1.8,0,2.4l6.3,3.6
		c1.2,0.7,3.1,0.7,4.2,0l2.2-1.3C288.4,201.1,288.4,200,287.3,199.3"/>
	<path class="st5" d="M286.8,199.6l-6.3-3.6c-0.9-0.5-2.4-0.5-3.3,0l-2.2,1.3c-0.9,0.5-0.9,1.4,0,1.9l6.3,3.6c0.9,0.5,2.4,0.5,3.4,0
		l2.2-1.3C287.8,201,287.8,200.1,286.8,199.6z"/>
</g>
<g id="Layer_5">
	<polyline class="st9" points="298.4,181.2 293.7,178.4 292.9,178.9 297.7,181.7 298.4,181.2 	"/>
	<polyline class="st9" points="299.4,187.6 288.6,181.3 287.9,181.7 298.6,188.1 299.4,187.6 	"/>
	<polyline class="st9" points="300.6,193.5 284.2,183.8 283.5,184.2 299.9,193.9 300.6,193.5 	"/>
	<polyline class="st9" points="310.5,188.4 299.7,182 299,182.5 309.7,188.8 310.5,188.4 	"/>
	<polyline class="st9" points="308.2,189.7 297.4,183.3 296.7,183.8 307.4,190.1 308.2,189.7 	"/>
	<polyline class="st9" points="310.4,196.9 286.3,182.6 285.5,183 309.7,197.3 310.4,196.9 	"/>
	<polyline class="st9" points="306.6,199 282.5,184.8 281.7,185.2 305.9,199.4 306.6,199 	"/>
	<polygon class="st9" points="280.1,186.2 279.3,186.6 303.8,201.1 304.6,200.7 	"/>
	<polyline class="st9" points="294.5,181.6 291.4,179.7 290.6,180.2 293.7,182 294.5,181.6 	"/>
	<polyline class="st9" points="328.3,164.1 323.5,161.2 322.8,161.7 327.5,164.5 328.3,164.1 	"/>
	<polyline class="st9" points="329.2,170.5 318.5,164.1 317.7,164.6 328.5,170.9 329.2,170.5 	"/>
	<polyline class="st9" points="338,172.5 327.3,166.1 326.5,166.6 337.3,172.9 338,172.5 	"/>
	<polyline class="st9" points="324.3,164.4 321.2,162.6 320.4,163 323.6,164.8 324.3,164.4 	"/>
	<polyline class="st9" points="315,172 310.3,169.2 309.5,169.6 314.3,172.4 315,172 	"/>
	<polyline class="st9" points="316,178.4 305.2,172.1 304.5,172.5 315.2,178.8 316,178.4 	"/>
	<polyline class="st9" points="317.2,184.2 300.8,174.6 300.1,175 316.5,184.7 317.2,184.2 	"/>
	<polyline class="st9" points="327.1,179.1 316.4,172.8 315.6,173.2 326.4,179.6 327.1,179.1 	"/>
	<polyline class="st9" points="324.8,180.4 314.1,174.1 313.3,174.5 324.1,180.9 324.8,180.4 	"/>
	<polyline class="st9" points="327,187.6 302.9,173.4 302.2,173.8 326.3,188 327,187.6 	"/>
	<polyline class="st9" points="323.2,189.8 299.1,175.5 298.4,176 322.5,190.2 323.2,189.8 	"/>
	<polyline class="st9" points="330.4,176.4 314,166.7 313.2,167.1 329.6,176.8 330.4,176.4 	"/>
	<polyline class="st9" points="340.2,179.8 316.1,165.5 315.3,166 339.4,180.2 340.2,179.8 	"/>
	<polyline class="st9" points="336.4,181.9 312.2,167.7 311.5,168.1 335.6,182.4 336.4,181.9 	"/>
	<polygon class="st9" points="296.7,176.9 295.9,177.4 320.5,191.9 321.2,191.4 	"/>
	<polyline class="st9" points="311.1,172.4 308,170.5 307.2,170.9 310.4,172.8 311.1,172.4 	"/>
</g>
<g id="Layer_6">
	<linearGradient id="SVGID_3_" gradientUnits="userSpaceOnUse" x1="264.7257" y1="271.3188" x2="360.2267" y2="216.1813">
		<stop  offset="0" style="stop-color:#2FADA9"/>
		<stop  offset="1" style="stop-color:#38CFCA"/>
	</linearGradient>
	<path class="st10" d="M359.6,215.2l-2.9-1.6l-11.2,6.5l0,0l-74.4,43.2c0,0-6.4,8.1-6.2,8.5c0.2,0.4,9.2-1.3,9.2-1.3l0,0l74.3-43.2
		l0,0l11.2-6.5l1.4-2L359.6,215.2z"/>
	<polygon class="st4" points="263.2,266.1 266.2,262.1 268.2,265.1 	"/>
	<path class="st11" d="M358.5,208.8l-2.9-1.6l-11.2,6.5l0,0L270,256.9l-4.5,6.1c0.6,0.6,1.1,1.5,1.2,2.4l6.3-1.3l0,0l74.3-43.2l0,0
		l11.2-6.5l1.4-2L358.5,208.8z"/>
	<polygon class="st5" points="358.5,208.8 355.6,207.2 344.5,213.7 347.3,215.3 348.7,219 347.3,221 358.5,214.5 359.9,212.5 	"/>
	<g class="st3">
		<polygon class="st12" points="348.7,219 359.9,212.5 358.5,214.5 347.3,221 		"/>
		<polygon class="st4" points="347.3,215.3 358.5,208.8 359.9,212.5 348.7,219 		"/>
	</g>
	<polygon class="st7" points="347.3,215.3 344.5,213.7 270,256.9 269.4,258.9 272,259.1 271,262.1 273.2,262.8 272.1,264 273,264.2 
		347.3,221 348.7,219 	"/>
	<g class="st3">
		<polygon class="st9" points="273.2,262.8 348.7,219 347.3,221 273,264.2 272.1,264 		"/>
		<polygon class="st7" points="272,259.1 347.3,215.3 348.7,219 273.2,262.8 271,262.1 		"/>
		<polygon class="st13" points="270,256.9 344.5,213.7 347.3,215.3 272,259.1 269.4,258.9 		"/>
	</g>
</g>
<g id="Layer_7">
	<linearGradient id="SVGID_4_" gradientUnits="userSpaceOnUse" x1="162.9798" y1="238.8048" x2="263.3848" y2="238.8048">
		<stop  offset="0" style="stop-color:#2FADA9"/>
		<stop  offset="1" style="stop-color:#38CFCA"/>
	</linearGradient>
	<path class="st14" d="M205,208.5c-2.3-1.3-5.9-1.3-8.2,0L163,234.1l59.6,36v-1l0,0v1l39.1-22.7c1.1-0.6,1.7-1.5,1.7-2.4l0-1
		c0,0,0,0.1,0,0.1c0-0.9-0.5-1.8-1.7-2.5L205,208.5z"/>
	<path class="st9" d="M262.1,226.5c1.1-0.6,1.7-1.5,1.7-2.4l0-1c0,0,0,0,0,0.1c0-0.9-0.5-1.8-1.7-2.5l-51.4-29.7
		c-2.3-1.3-5.9-1.3-8.2,0l-39.1,22.7l0,11.5l59.6,34.4v-1l0,0v1l39.1-22.7c1.1-0.6,1.7-1.5,1.7-2.4l0-1c0,0,0,0.1,0,0.1
		c0-0.9-0.5-1.8-1.7-2.5l-1.9-1.1l0-2.5L262.1,226.5z"/>
	<g>
		<polygon class="st15" points="223,258.7 223,259.7 163.3,225.3 163.3,224.3 		"/>
		<path class="st15" d="M262,231.2c2.3,1.3,2.3,3.4,0,4.7L223,258.7l-59.6-34.4l39.1-22.7c2.3-1.3,5.9-1.3,8.2,0L262,231.2z"/>
	</g>
	<g>
		<linearGradient id="SVGID_5_" gradientUnits="userSpaceOnUse" x1="222.2525" y1="240.9948" x2="260.1059" y2="240.9948">
			<stop  offset="0" style="stop-color:#FFFFFF"/>
			<stop  offset="1" style="stop-color:#A7D6D9"/>
		</linearGradient>
		<path class="st16" d="M258.4,226.9l-36.2,21v9.5l36.2-21c1.1-0.6,1.7-1.5,1.7-2.4l0-9.5C260.1,225.4,259.5,226.3,258.4,226.9z"/>
	</g>
	<path class="st13" d="M262,220.8c2.3,1.3,2.3,3.4,0,4.7L223,248.2l-59.6-34.4l39.1-22.7c2.2-1.3,5.9-1.3,8.2,0L262,220.8z"/>
	<polygon class="st9" points="163.3,213.8 163.3,225.3 223,259.7 223,248.2 	"/>
	<path class="st9" d="M262.1,226.5c1.1-0.6,1.7-1.5,1.7-2.4l0-1c0,0.9-0.6,1.7-1.7,2.4L223,248.2v11.5l39.1-22.7
		c1.1-0.6,1.7-1.5,1.7-2.4l0-1c0,0.9-0.6,1.7-1.7,2.4l-38.3,22.3v-9.5L262.1,226.5z"/>
	<polyline class="st17" points="231.6,247.4 227.3,249.8 227.4,259 229.5,255.9 231.6,256.5 231.6,247.4 	"/>
	<g>
		<path class="st9" d="M205.3,221.9l-1.5-1.6l2.7,0.9L205.3,221.9 M211.7,221.1l-9.1-2.5l-1.7,1l4.4,5.3l1.9-1.1l-0.9-1l1.8-1
			l1.7,0.5L211.7,221.1"/>
		<polyline class="st9" points="215.1,217 213.5,216.1 210.5,217.8 212.2,218.8 215.1,217 		"/>
		<polyline class="st9" points="225.1,213.3 223.5,212.4 220.5,214.2 219.7,210.3 218.3,209.5 213.2,212.4 214.8,213.4 217.8,211.6 
			218.4,215.6 219.8,216.4 225.1,213.3 		"/>
	</g>
</g>
<g id="Layer_18">
	<polyline class="st9" points="292.1,182.6 299.9,178.4 299.9,173.7 289.7,175.5 292.1,182.6 	"/>
</g>
<g id="Layer_8_copy">
	<path class="st13" d="M298.9,132.8l-24.2-14c-1.5-0.9-2.9-1-3.9-0.4l-6.8,4c0,0,0,0,0,0c-1,0.6-1.6,1.8-1.6,3.5l-0.1,27.8
		c0,3.5,2.4,7.8,5.5,9.5l14.8,8.5l9.5,10.8l-0.1-5.3c1.6,0.9,3,1,4,0.3c0,0-0.1,0-0.1,0.1l6.8-4c1-0.6,1.6-1.8,1.6-3.5l0.1-27.8
		C304.4,138.8,302,134.5,298.9,132.8z"/>
	<g class="st3">
		<path class="st18" d="M302.7,173.6l-6.8,4c1-0.6,1.6-1.8,1.6-3.5l6.8-4C304.3,171.9,303.7,173.1,302.7,173.6z"/>
		<g>
			<path class="st18" d="M263.9,122.4l6.8-4c1-0.6,2.4-0.5,3.9,0.4l-6.8,4C266.3,121.9,264.9,121.8,263.9,122.4z"/>
			<polygon class="st9" points="297.6,146.2 304.4,142.3 304.3,170.1 297.5,174.1 			"/>
		</g>
		<polygon class="st9" points="267.9,122.8 274.7,118.8 298.9,132.8 292.1,136.7 		"/>
		<path class="st19" d="M292.1,136.7l6.8-4c3,1.8,5.5,6,5.5,9.5l-6.8,4C297.6,142.8,295.1,138.5,292.1,136.7z"/>
	</g>
</g>
<g id="Layer_13">
	<g id="Layer_14">
		<path class="st9" d="M287.9,168.9l-16.4-9.4c-3.3-1.9-5.9-6-5.9-9.3v-16.4c0-3.3,2.6-4.4,5.9-2.5l16.4,9.4c3.3,1.9,5.9,6,5.9,9.3
			v16.4C293.8,169.7,291.1,170.8,287.9,168.9z"/>
	</g>
</g>
<g id="Layer_20">
	<g id="Layer_21">
		<g id="Layer_22">
			<g id="Layer_40">
				<path class="st20" d="M277.1,128.9c11.3,6.5,20.4,20.9,20.4,32.2c0,11.3-9.1,15.1-20.4,8.6c-11.3-6.5-20.4-20.9-20.4-32.2
					C256.7,126.3,265.8,122.4,277.1,128.9L277.1,128.9z M277.1,128.9"/>
			</g>
			<g id="Layer_39">
			</g>
			<g id="Layer_38">
			</g>
			<g id="Layer_37">
			</g>
			<g id="Layer_36">
			</g>
			<g id="Layer_35">
			</g>
			<g id="Layer_34">
			</g>
			<g id="Layer_33">
			</g>
		</g>
	</g>
</g>
<g id="Layer_13_copy">
	<g id="Layer_14_copy">
		<g>
			<defs>
				<path id="SVGID_6_" d="M287.9,168.9l-16.4-9.4c-3.3-1.9-5.9-6-5.9-9.3v-16.4c0-3.3,2.6-4.4,5.9-2.5l16.4,9.4
					c3.3,1.9,5.9,6,5.9,9.3v16.4C293.8,169.7,291.1,170.8,287.9,168.9z"/>
			</defs>
			<clipPath id="SVGID_7_">
				<use xlink:href="#SVGID_6_"  style="overflow:visible;"/>
			</clipPath>
			<path class="st21" d="M268.5,142.2l8,4.6v0.7l-8-4.6V142.2z M268.5,145.9l8,4.6v0.7l-8-4.6V145.9z M268.5,144.1l8,4.6v0.7l-8-4.6
				V144.1z M268.5,144.1"/>
			<path class="st22" d="M268.5,134l8,4.6v0.7l-8-4.6V134z M268.5,137.7l8,4.6v0.7l-8-4.6V137.7z M268.5,135.8l8,4.6v0.7l-8-4.6
				V135.8z M268.5,135.8"/>
			<path class="st21" d="M269.2,159.1l6.7,3.8v-0.7l-6.7-3.8L269.2,159.1L269.2,159.1z M269.2,159.1"/>
			<polygon class="st21" points="269.2,130.4 275.9,134.3 275.9,135 269.2,131.1 			"/>
			<path class="st22" d="M268.5,150.5l8,4.6v0.7l-8-4.6V150.5z M268.5,154.2l8,4.6v0.7l-8-4.6V154.2z M268.5,152.4l8,4.6v0.7l-8-4.6
				V152.4z M268.5,152.4"/>
			<path class="st23" d="M272.1,149.9c1.8,1.4,3,2.7,3.8,3.9c1.9,2.8,1.9,5.7,0,6.4c-0.8,0.3-2,0.2-3.8-0.5
				c-1.5-0.6-2.4-0.4-2.8,0.1l-1.7-1c0.5-0.9,1.6-1.7,4.2-0.7c1.5,0.6,2.4,0.6,3,0.4c1.2-0.4,1.2-2.4,0-4.2c-0.6-0.9-1.5-1.9-3-3.1
				c-6.2-4.7-6.1-12.2,0-9.8c1.5,0.6,2.4,0.6,3,0.4c1.2-0.4,1.2-2.4,0-4.2c-0.6-0.9-1.5-1.9-3-3.1c-2.8-2.1-3.9-4.4-4.3-5.9l1.6,0.9
				c0.4,1,1.3,2.4,3,3.6c1.8,1.4,3,2.7,3.8,3.9c1.9,2.8,1.9,5.7,0,6.4c-0.8,0.3-2,0.2-3.8-0.5C267.6,141.3,267.6,146.5,272.1,149.9
				L272.1,149.9z M272.1,149.9"/>
			<path class="st24" d="M272.5,150.1c-1.8-0.7-3-0.8-3.8-0.5c-1.9,0.7-1.9,3.6,0,6.4c0.8,1.2,2,2.5,3.8,3.9
				c1.5,1.2,2.4,2.3,2.8,3.3l1.7,1c-0.5-1.5-1.6-3.6-4.2-5.6c-1.5-1.1-2.4-2.2-3-3.1c-1.2-1.8-1.2-3.8,0-4.2c0.6-0.2,1.5-0.1,3,0.4
				c6.1,2.4,6.1-5.1,0-9.8c-1.5-1.1-2.4-2.2-3-3.1c-1.2-1.8-1.2-3.8,0-4.2c0.6-0.2,1.5-0.2,3,0.4c2.8,1.1,3.9,0.1,4.3-0.9l-1.6-0.9
				c-0.4,0.5-1.3,0.9-3,0.2c-1.8-0.7-3-0.8-3.8-0.5c-1.9,0.7-1.9,3.6,0,6.4c0.8,1.2,2,2.5,3.8,3.9C277,146.7,277,151.9,272.5,150.1
				L272.5,150.1z M272.5,150.1"/>
		</g>
	</g>
</g>
<g id="Layer_32">
	<path class="st25" d="M277,141.4c4.3,1.4,8.7,6.5,9.9,11.5c0.7,3.1,0,5.4-1.7,6.3l3.8,5.9l-0.8,0.3l-3.8-5.9
		c-0.9,0.3-2,0.3-3.3-0.1c-4.3-1.4-8.7-6.5-9.9-11.5C270.1,143,272.7,140,277,141.4L277,141.4z M277.3,142.5
		c-3.8-1.2-6.1,1.4-5.1,5.8c1,4.4,4.9,8.9,8.7,10.1c3.8,1.2,6.1-1.4,5.1-5.8C285,148.2,281.1,143.7,277.3,142.5L277.3,142.5z
		 M277.3,142.5"/>
	<path class="st9" d="M277.3,142.5c3.8,1.2,7.7,5.7,8.7,10.1c1,4.4-1.3,7-5.1,5.8c-3.8-1.2-7.7-5.7-8.7-10.1
		C271.2,143.8,273.5,141.2,277.3,142.5L277.3,142.5z M277.3,142.5"/>
	<path class="st26" d="M284.8,160.8l1.7-0.7c0.3-0.1,0.7,0.1,0.9,0.5l8.1,12.9c0.3,0.4,0.2,0.8,0,0.9l-1.7,0.7
		c-0.3,0.1-0.7-0.1-0.9-0.5l-8.1-12.9C284.6,161.4,284.6,160.9,284.8,160.8L284.8,160.8z M284.8,160.8"/>
	<path class="st27" d="M272.8,143.5l7.2,4.1v1.1l-7.6-4.4C272.4,144,272.6,143.7,272.8,143.5L272.8,143.5z M272.9,150.4
		c-0.2-0.5-0.4-0.9-0.5-1.4l7.5,4.3v1.1L272.9,150.4z M272,147c0-0.4,0-0.8,0-1.1l8,4.6v1.1L272,147z M272,147"/>
	<path class="st28" d="M275.2,154.2c0.8,0.7,1.5,1.4,2.1,2.1C276.6,155.6,275.9,154.9,275.2,154.2L275.2,154.2z M277.9,142.7
		c-0.8,0.1-1.9,0-3.2-0.4c0.7-0.2,1.6-0.1,2.6,0.2C277.5,142.5,277.7,142.6,277.9,142.7L277.9,142.7z M277.9,142.7"/>
	<path class="st29" d="M276.9,156c5.9,0.5,5.8-7.4-0.3-13.7c-1-0.2-1.8-0.2-2.5,0.1c6.4,5.2,6.5,12.6,0.2,10.6
		C275.1,154.1,276,155.1,276.9,156L276.9,156z M276.9,156"/>
	<path class="st30" d="M277.3,142.5c0.5,0.1,0.9,0.3,1.4,0.6c-0.1,0-0.2,0-0.2,0c-0.2-0.1-0.3-0.1-0.5-0.2c-3.8-1.2-6.1,1.4-5.1,5.8
		c0.7,3.2,3,6.4,5.6,8.4c0.1,0.1,0.2,0.2,0.2,0.2c-3-1.9-5.7-5.5-6.5-9.1C271.2,143.8,273.5,141.2,277.3,142.5L277.3,142.5z
		 M277.3,142.5"/>
	<path class="st31" d="M280.8,144.9c-0.4-0.4-0.9-0.7-1.3-1c0.1,0.1,0.2,0.2,0.2,0.2c0.2,0.1,0.3,0.2,0.5,0.4
		c0.2,0.2,0.4,0.3,0.6,0.5c3.2,3,5.1,7.5,4.2,10.3c-0.6,1.9-2.2,2.6-4.2,2.1c-0.3-0.1-0.7-0.2-1-0.3c-0.1,0-0.1,0-0.2,0
		c2.8,1.4,5.2,0.9,6-1.5C286.4,152.7,284.3,147.9,280.8,144.9L280.8,144.9z M280.8,144.9"/>
	<path class="st32" d="M291.7,172.1l-6.9-11c0,0,0-0.1-0.1-0.1c-0.1,0.2,0,0.5,0.1,0.8l6.6,10.4l1.5,2.5c0.2,0.3,0.5,0.5,0.7,0.6
		c-0.1-0.1-0.1-0.1-0.2-0.2L291.7,172.1z M291.7,172.1"/>
</g>
<g id="Layer_15">
	<linearGradient id="SVGID_8_" gradientUnits="userSpaceOnUse" x1="340.9767" y1="243.4648" x2="395.8566" y2="243.4648">
		<stop  offset="0" style="stop-color:#2FADA9"/>
		<stop  offset="1" style="stop-color:#38CFCA"/>
	</linearGradient>
	<polygon class="st33" points="341,246.9 362.3,259.5 395.9,240.3 374.1,227.4 	"/>
	<polygon class="st13" points="374.5,221.7 341,241.2 341,243.6 362.3,255.9 395.9,236.4 395.9,234 	"/>
	<g>
		<polygon class="st9" points="395.9,234 395.9,236.4 362.3,255.9 362.3,253.5 		"/>
		<polygon class="st9" points="362.3,253.5 362.3,255.9 341,243.6 341,241.2 		"/>
	</g>
	<g>
		<polygon class="st15" points="351.7,243.5 356.5,240.7 356.5,239.7 356.5,239.7 351.9,237 347.1,239.8 347.1,239.8 347.1,239.8 
			347.1,239.8 347.1,239.8 347.1,240.8 351.7,243.5 		"/>
		<polygon class="st15" points="357.5,246.8 362.3,244 362.3,243 362.3,243 357.6,240.3 352.8,243.1 352.8,243.1 352.8,243.1 
			352.8,243.1 352.8,243.1 352.8,244.1 357.5,246.8 		"/>
		<polygon class="st15" points="353.8,235.9 353.8,236.9 358.5,239.6 358.5,239.6 363.3,236.8 363.3,235.8 363.3,235.8 358.6,233.1 
			353.8,235.9 353.8,235.9 353.8,235.9 353.8,235.9 		"/>
		<polygon class="st15" points="364.2,242.9 364.2,242.9 369,240.1 369,239.1 369,239.1 364.4,236.4 359.6,239.2 359.6,239.2 
			359.6,239.2 359.6,239.2 359.6,239.2 359.6,240.2 		"/>
	</g>
	<polygon class="st34" points="374.7,242.5 370.1,239.8 358.6,246.5 358.6,246.5 358.6,246.5 358.6,246.5 358.6,246.5 358.6,247.5 
		363.2,250.1 363.2,250.1 374.7,243.5 374.7,242.5 	"/>
	<g>
		<polygon class="st15" points="360.4,232.2 360.4,233.2 365,235.8 365,235.8 369.8,233.1 369.8,232.1 369.8,232.1 365.1,229.4 
			360.4,232.2 360.4,232.2 360.4,232.2 360.4,232.2 		"/>
		<polygon class="st15" points="366.1,235.5 366.1,235.5 366.1,235.5 366.1,235.5 366.1,236.5 370.7,239.1 370.7,239.1 375.5,236.4 
			375.5,235.4 375.5,235.4 370.9,232.7 366.1,235.5 		"/>
		<polygon class="st15" points="376.4,242.5 381.2,239.7 381.2,238.8 381.2,238.8 376.6,236.1 371.8,238.9 371.8,238.9 371.8,238.9 
			371.8,238.9 371.8,238.9 371.8,239.8 376.4,242.5 		"/>
	</g>
	<polygon class="st9" points="351.7,243.5 347.1,240.8 347.1,239.8 351.7,242.5 	"/>
	<polygon class="st9" points="351.7,243.5 351.7,242.5 356.5,239.7 356.5,240.7 	"/>
	<polygon class="st9" points="357.5,246.8 352.8,244.1 352.8,243.1 357.5,245.8 	"/>
	<polygon class="st9" points="357.5,246.8 357.5,245.8 362.3,243 362.3,244 	"/>
	<polygon class="st9" points="358.5,239.6 353.8,236.9 353.8,235.9 358.5,238.6 	"/>
	<polygon class="st9" points="358.5,239.6 358.5,238.6 363.3,235.8 363.3,236.8 	"/>
	<polygon class="st9" points="364.2,242.9 359.6,240.2 359.6,239.2 364.2,241.9 	"/>
	<polygon class="st9" points="364.2,242.9 364.2,241.9 369,239.1 369,240.1 	"/>
	<polygon class="st5" points="363.2,250.1 358.6,247.5 358.6,246.5 363.2,249.2 	"/>
	<polygon class="st5" points="363.2,250.1 363.2,249.2 374.7,242.5 374.7,243.5 	"/>
	<polygon class="st9" points="365,235.8 360.4,233.2 360.4,232.2 365,234.9 	"/>
	<polygon class="st9" points="365,235.8 365,234.9 369.8,232.1 369.8,233.1 	"/>
	<polygon class="st9" points="370.7,239.1 366.1,236.5 366.1,235.5 370.7,238.2 	"/>
	<polygon class="st9" points="370.7,239.1 370.7,238.2 375.5,235.4 375.5,236.4 	"/>
	<polygon class="st9" points="376.4,242.5 371.8,239.8 371.8,238.9 376.4,241.5 	"/>
	<polygon class="st9" points="376.4,242.5 376.4,241.5 381.2,238.8 381.2,239.7 	"/>
	<polygon class="st7" points="383.5,238.4 390.1,234.5 373.5,224.9 366.9,228.8 	"/>
	<g>
		<path class="st9" d="M386.6,234.4l-0.6,0l-1.1,0.6l0,0.3l0.6,0l1.1-0.6L386.6,234.4 M384.7,233.3l-0.6,0l-1.1,0.6l0,0.3l0.6,0
			l1.1-0.6L384.7,233.3 M384.8,235.5l-0.6,0l-1.1,0.6l0,0.3l0.6,0l1.1-0.6L384.8,235.5 M382.9,234.4l-0.6,0l-1.1,0.6l0,0.3l0.6,0
			l1.1-0.6L382.9,234.4 M382.9,236.1l-1.1-0.6l-0.6,0l0,0.3l1.1,0.6l0.6,0L382.9,236.1 M386.6,234l-1.1-0.6l-0.6,0l0,0.3l1.1,0.6
			l0.6,0L386.6,234"/>
	</g>
</g>
<g id="Layer_16" class="st35">
	<path class="st9" d="M308.9,48.3l79.8,43.9c1,0.5,1.8,1.8,1.8,2.7v48.9c0,1-0.8,1.3-1.8,0.8l-79.8-43.9c-1-0.5-1.8-1.8-1.8-2.7V49
		C307.1,48.1,307.9,47.7,308.9,48.3L308.9,48.3z M308.9,48.3"/>
	<linearGradient id="SVGID_9_" gradientUnits="userSpaceOnUse" x1="310.8018" y1="96.8823" x2="386.6776" y2="96.8823">
		<stop  offset="0.6931" style="stop-color:#FFFFFF"/>
		<stop  offset="1" style="stop-color:#A7D6D9"/>
	</linearGradient>
	<polygon class="st36" points="310.8,52.9 386.7,94.6 386.7,140.9 310.8,99.1 	"/>
	<polygon class="st30" points="315.9,61.3 359.2,85 359.2,112.6 315.9,88.8 	"/>
	<polygon class="st37" points="362.4,96.9 372.6,102.6 372.6,109.1 362.4,103.5 	"/>
	<polygon class="st37" points="362.4,86.8 372.6,92.5 372.6,99 362.4,93.4 	"/>
	<polygon class="st37" points="362.4,107 372.6,112.7 372.6,119.3 362.4,113.6 	"/>
	<path class="st31" d="M366.2,90.4l2.6,3.2l-2.6,0.3V90.4z M366.2,90.4"/>
	<path class="st31" d="M366.2,100.6l2.6,3.2l-2.6,0.3V100.6z M366.2,100.6"/>
	<path class="st31" d="M366.2,110.7l2.6,3.2l-2.6,0.3V110.7z M366.2,110.7"/>
	<polygon class="st27" points="310.8,52.9 318.5,57.1 318.5,60 310.8,55.8 	"/>
	<polygon class="st26" points="315.9,88.8 359.2,112.6 359.2,114.6 315.9,90.8 	"/>
	<path class="st27" d="M337.8,82.2c2.6,1.4,4.7,4.7,4.7,7.3c0,2.6-2.1,3.5-4.7,2.1c-2.6-1.4-4.7-4.7-4.7-7.3
		C333.1,81.7,335.2,80.8,337.8,82.2L337.8,82.2z M337.8,82.2"/>
	<path class="st31" d="M336,83.1l4.2,5.1l-4.2,0.5V83.1z M336,83.1"/>
	<polygon class="st38" points="345.7,105.2 359.2,112.6 359.2,114.6 345.7,107.2 	"/>
	<path class="st38" d="M322.9,98l30.6,16.8v1L322.9,99V98z M322.9,101l18.7,10.3v1l-18.7-10.3V101z M322.9,101"/>
	<path class="st38" d="M374.8,93.8l9.1,5v1l-9.1-5V93.8z M374.8,95.9l5.6,3.1v1l-5.6-3.1V95.9z M374.8,95.9"/>
	<path class="st38" d="M374.8,103.4l9.1,5v1l-9.1-5V103.4z M374.8,105.5l5.6,3.1v1l-5.6-3.1V105.5z M374.8,105.5"/>
	<path class="st38" d="M374.8,114l9.1,5v1l-9.1-5V114z M374.8,116.1l5.6,3.1v1l-5.6-3.1V116.1z M374.8,116.1"/>
	<polygon class="st37" points="362.4,117.1 372.6,122.7 372.6,129.3 362.4,123.6 	"/>
	<path class="st31" d="M366.2,120.7l2.6,3.2l-2.6,0.3V120.7z M366.2,120.7"/>
	<path class="st38" d="M374.8,124l9.1,5v1l-9.1-5V124z M374.8,126.1l5.6,3.1v1l-5.6-3.1V126.1z M374.8,126.1"/>
	<polygon class="st30" points="318.5,57.1 386.7,94.6 386.7,97.5 318.5,60 	"/>
</g>
<g id="Layer_16_copy" class="st35">
	<path class="st9" d="M235,87.9l40.4-22.5c0.5-0.3,0.9-0.1,0.9,0.4v24.7c0,0.5-0.4,1.1-0.9,1.4L235,114.5c-0.5,0.3-0.9,0.1-0.9-0.4
		V89.3C234.1,88.8,234.5,88.2,235,87.9L235,87.9z M235,87.9"/>
	
		<linearGradient id="SVGID_10_" gradientUnits="userSpaceOnUse" x1="235.982" y1="-40.0282" x2="274.4045" y2="-40.0282" gradientTransform="matrix(1 -1.1086 0 1 0 413.1026)">
		<stop  offset="0.6931" style="stop-color:#FFFFFF"/>
		<stop  offset="1" style="stop-color:#A7D6D9"/>
	</linearGradient>
	<polygon class="st39" points="236,89.2 274.4,67.7 274.4,91.1 236,112.6 	"/>
	<polygon class="st7" points="235.9,93.2 274.4,71.7 274.4,85.7 235.9,107.1 	"/>
	<polygon class="st27" points="236,89.2 239.9,87 239.9,88.5 236,90.7 	"/>
	<path class="st38" d="M242.1,105.2l15.5-8.6v0.5l-15.5,8.6V105.2z M242.1,106.7l9.5-5.3v0.5l-9.5,5.3V106.7z M242.1,106.7"/>
	<path class="st31" d="M239.7,94.8l15.5-8.6v0.5l-15.5,8.6V94.8z M239.7,96.3l9.5-5.3v0.5l-9.5,5.3V96.3z M239.7,96.3"/>
	<path class="st31" d="M239.7,98.1l15.5-8.6v0.5l-15.5,8.6V98.1z M239.7,99.6l9.5-5.3v0.5l-9.5,5.3V99.6z M239.7,99.6"/>
	<path class="st38" d="M258.8,96l4.6-2.6v0.5l-4.6,2.6V96z M258.8,97l2.8-1.6v0.5l-2.8,1.6V97z M258.8,97"/>
	<path class="st38" d="M253.8,81.2l4.6-2.6v0.5l-4.6,2.6V81.2z M253.8,82.2l2.8-1.6v0.5l-2.8,1.6V82.2z M253.8,82.2"/>
	<polygon class="st30" points="239.9,87 274.4,67.7 274.4,69.2 239.9,88.5 	"/>
</g>
<g id="Layer_9">
	<linearGradient id="SVGID_11_" gradientUnits="userSpaceOnUse" x1="307.3496" y1="85.5932" x2="307.3496" y2="205.6625">
		<stop  offset="0.4356" style="stop-color:#FFFFFF;stop-opacity:0"/>
		<stop  offset="1" style="stop-color:#FFFFFF;stop-opacity:0.5"/>
	</linearGradient>
	<polygon class="st40" points="271.4,188 302.1,205.7 355.3,174.9 443.7,85.6 171,93.6 	"/>
</g>
<g id="Layer_19_copy" class="st41">
	<linearGradient id="SVGID_12_" gradientUnits="userSpaceOnUse" x1="111.311" y1="145.6279" x2="157.0059" y2="145.6279">
		<stop  offset="0" style="stop-color:#38CFCA"/>
		<stop  offset="1" style="stop-color:#FFFFFF"/>
	</linearGradient>
	<polygon class="st42" points="111.8,158.9 111.3,158.1 156.5,132.3 157,133.2 	"/>
	<circle class="st31" cx="156.7" cy="132.9" r="1.4"/>
	<linearGradient id="SVGID_13_" gradientUnits="userSpaceOnUse" x1="239.1533" y1="129.1372" x2="284.8481" y2="129.1372">
		<stop  offset="0" style="stop-color:#38CFCA"/>
		<stop  offset="1" style="stop-color:#FFFFFF"/>
	</linearGradient>
	<polygon class="st43" points="239.6,142.4 239.2,141.6 284.4,115.8 284.8,116.7 	"/>
	<circle class="st31" cx="284.5" cy="116.4" r="1.4"/>
	<linearGradient id="SVGID_14_" gradientUnits="userSpaceOnUse" x1="217.668" y1="64.5776" x2="263.3628" y2="64.5776">
		<stop  offset="0" style="stop-color:#38CFCA"/>
		<stop  offset="1" style="stop-color:#FFFFFF"/>
	</linearGradient>
	<polygon class="st44" points="218.2,77.9 217.7,77 262.9,51.3 263.4,52.2 	"/>
	<circle class="st31" cx="263" cy="51.9" r="1.4"/>
	<linearGradient id="SVGID_15_" gradientUnits="userSpaceOnUse" x1="384.5303" y1="152.1865" x2="430.2246" y2="152.1865">
		<stop  offset="0" style="stop-color:#38CFCA"/>
		<stop  offset="1" style="stop-color:#FFFFFF"/>
	</linearGradient>
	<polygon class="st45" points="385,165.5 384.5,164.6 429.7,138.9 430.2,139.8 	"/>
	<circle class="st31" cx="429.9" cy="139.5" r="1.4"/>
	<linearGradient id="SVGID_16_" gradientUnits="userSpaceOnUse" x1="278.6499" y1="283.188" x2="324.3447" y2="283.188">
		<stop  offset="0" style="stop-color:#38CFCA"/>
		<stop  offset="1" style="stop-color:#FFFFFF"/>
	</linearGradient>
	<polygon class="st46" points="279.1,296.5 278.6,295.6 323.9,269.9 324.3,270.8 	"/>
	<circle class="st31" cx="324" cy="270.5" r="1.4"/>
	<linearGradient id="SVGID_17_" gradientUnits="userSpaceOnUse" x1="143.3057" y1="232.2739" x2="189.0005" y2="232.2739">
		<stop  offset="0" style="stop-color:#38CFCA"/>
		<stop  offset="1" style="stop-color:#FFFFFF"/>
	</linearGradient>
	<polygon class="st47" points="143.8,245.6 143.3,244.7 188.5,219 189,219.8 	"/>
	<circle class="st31" cx="188.7" cy="219.6" r="1.4"/>
	<linearGradient id="SVGID_18_" gradientUnits="userSpaceOnUse" x1="418.0439" y1="238.3838" x2="463.7383" y2="238.3838">
		<stop  offset="0" style="stop-color:#38CFCA"/>
		<stop  offset="1" style="stop-color:#FFFFFF"/>
	</linearGradient>
	<polygon class="st48" points="418.5,251.7 418,250.8 463.2,225.1 463.7,226 	"/>
	<circle class="st31" cx="463.4" cy="225.7" r="1.4"/>
</g>
</svg>
