<svg xmlns="http://www.w3.org/2000/svg" viewBox="0 0 45.744 32.264">
  <defs>
    <style>
      .cls-1 {
        fill: #38cfca;
      }
    </style>
  </defs>
  <g id="Group_2852" data-name="Group 2852" transform="translate(45.744 32.264) rotate(180)">
    <path id="Path_3" data-name="Path 3" class="cls-1" d="M0,22.409c0,8.506,2.2,10.463,11.1,9.635,2.518-.226,5.666,0,6.61-3.011a13.808,13.808,0,0,0-.472-10.613,2.522,2.522,0,0,0-1.967-1.129c-4.328-.6-3.226-2.86-1.731-5.269A12.829,12.829,0,0,1,18.651,7.43c2.912-1.43,2.2-3.387,1.18-5.344C18.73-.022,16.92-.549,14.559.58,5.273,5.247-.078,12.172,0,22.409Z" transform="translate(0 0)"/>
    <path id="Path_4" data-name="Path 4" class="cls-1" d="M0,22.259c.079,8.807,2.6,10.688,12.355,9.559,3.777-.452,5.745-1.957,6.138-5.8.551-5.269-.393-7.527-5.036-9.258-1.574-.6-1.653-1.28-1.1-2.559a13.072,13.072,0,0,1,6.059-6.624c2.912-1.505,2.676-3.312,1.416-5.57C18.493-.4,16.6-.4,14.243.731,5.036,5.323,0,12.248,0,22.259Z" transform="translate(25.025 0.15)"/>
  </g>
</svg>
