<svg id="Group_2851" data-name="Group 2851" xmlns="http://www.w3.org/2000/svg" viewBox="0 0 47.483 35.013">
  <defs>
    <style>
      .cls-1 {
        fill: #38cfca;
      }
    </style>
  </defs>
  <path id="Path_3" data-name="Path 3" class="cls-1" d="M0,10.713C0,1.483,2.287-.641,11.517.258c2.614.245,5.881,0,6.861,3.267,1.144,3.839,1.307,7.76-.49,11.517a2.6,2.6,0,0,1-2.042,1.225c-4.493.653-3.349,3.1-1.8,5.718a13.541,13.541,0,0,0,5.309,4.983c3.022,1.552,2.287,3.676,1.225,5.8-1.144,2.287-3.022,2.859-5.473,1.634C5.473,29.337-.082,21.822,0,10.713Z" transform="translate(0.001 -0.019)"/>
  <path id="Path_4" data-name="Path 4" class="cls-1" d="M31.8,10.7C31.882,1.145,34.5-.9,44.624.328c3.921.49,5.963,2.124,6.371,6.29.572,5.718-.408,8.168-5.228,10.047-1.634.653-1.715,1.389-1.144,2.777a13.97,13.97,0,0,0,6.29,7.188c3.022,1.634,2.777,3.594,1.47,6.045-1.389,2.614-3.349,2.614-5.8,1.389C37.028,29.081,31.8,21.566,31.8,10.7Z" transform="translate(-5.823 -0.007)"/>
</svg>
