<svg id="Group_4306" data-name="Group 4306" xmlns="http://www.w3.org/2000/svg" viewBox="0 0 88.861 19.825">
  <defs>
    <style>
      .cls-1 {
        fill: #fff;
      }
    </style>
  </defs>
  <path id="Path_4331" data-name="Path 4331" class="cls-1" d="M27.731,3.1a3.548,3.548,0,0,0-2.5-2.5C23.02,0,14.157,0,14.157,0S5.294,0,3.079.583A3.62,3.62,0,0,0,.583,3.1,37.38,37.38,0,0,0,0,9.912a37.241,37.241,0,0,0,.583,6.81,3.548,3.548,0,0,0,2.5,2.5c2.239.606,11.078.606,11.078.606s8.863,0,11.078-.583a3.548,3.548,0,0,0,2.5-2.5,37.38,37.38,0,0,0,.583-6.81A35.493,35.493,0,0,0,27.731,3.1Zm-16.4,11.055V5.667l7.37,4.245Z" transform="translate(0 0)"/>
  <g id="Group_4197" data-name="Group 4197" transform="translate(31.136 0.77)">
    <g id="Group_4196" data-name="Group 4196">
      <path id="Path_4332" data-name="Path 4332" class="cls-1" d="M171.239,36.991a3.017,3.017,0,0,1-1.189-1.773,11.687,11.687,0,0,1-.35-3.172v-1.8a10.971,10.971,0,0,1,.4-3.219,3.327,3.327,0,0,1,1.259-1.773,4.115,4.115,0,0,1,2.262-.56,3.95,3.95,0,0,1,2.216.56,3.235,3.235,0,0,1,1.213,1.773,10.754,10.754,0,0,1,.4,3.219v1.8a10.9,10.9,0,0,1-.373,3.2,3.236,3.236,0,0,1-1.213,1.773,4.092,4.092,0,0,1-2.286.56A4.407,4.407,0,0,1,171.239,36.991Zm3.149-1.959a5.821,5.821,0,0,0,.233-1.982V29.178a5.845,5.845,0,0,0-.233-1.959.837.837,0,0,0-1.609,0,5.844,5.844,0,0,0-.233,1.959V33.05a5.821,5.821,0,0,0,.233,1.982.819.819,0,0,0,.816.606A.8.8,0,0,0,174.388,35.032Z" transform="translate(-161.257 -19.709)"/>
      <path id="Path_4333" data-name="Path 4333" class="cls-1" d="M352.005,31.917v.63a16.881,16.881,0,0,0,.07,1.8,1.492,1.492,0,0,0,.3.863.818.818,0,0,0,.7.28.875.875,0,0,0,.863-.49,4.282,4.282,0,0,0,.257-1.633l2.4.14a2.407,2.407,0,0,1,.023.443,3.265,3.265,0,0,1-.933,2.566,3.868,3.868,0,0,1-2.659.84,3.179,3.179,0,0,1-2.892-1.306,7.5,7.5,0,0,1-.84-4.012V29.864a7.431,7.431,0,0,1,.863-4.082A3.279,3.279,0,0,1,353.1,24.5a3.933,3.933,0,0,1,2.216.536,2.853,2.853,0,0,1,1.073,1.633,11.941,11.941,0,0,1,.3,3.079V31.87h-4.688Zm.35-5.224a1.782,1.782,0,0,0-.28.863,17.084,17.084,0,0,0-.07,1.819v.886h2.052v-.886a17.719,17.719,0,0,0-.07-1.819,1.6,1.6,0,0,0-.3-.863.842.842,0,0,0-.653-.257A.708.708,0,0,0,352.355,26.692Z" transform="translate(-298.969 -19.556)"/>
      <path id="Path_4334" data-name="Path 4334" class="cls-1" d="M136.672,17.5,133.5,6h2.775l1.12,5.2q.42,1.924.63,3.289h.07c.093-.653.3-1.726.63-3.265L139.891,6h2.775l-3.219,11.5V23H136.7V17.5Z" transform="translate(-133.5 -5.37)"/>
      <path id="Path_4335" data-name="Path 4335" class="cls-1" d="M216.68,25.7V38.131h-2.192l-.233-1.516h-.07a2.871,2.871,0,0,1-2.682,1.726,2.121,2.121,0,0,1-1.819-.816,4.306,4.306,0,0,1-.583-2.542V25.7h2.8v9.119a2.843,2.843,0,0,0,.187,1.189.629.629,0,0,0,.606.35,1.2,1.2,0,0,0,.7-.233,1.137,1.137,0,0,0,.49-.56V25.7Z" transform="translate(-191.468 -20.476)"/>
      <path id="Path_4336" data-name="Path 4336" class="cls-1" d="M278.18,25.7V38.131h-2.192l-.233-1.516h-.07A2.871,2.871,0,0,1,273,38.341a2.121,2.121,0,0,1-1.819-.816,4.306,4.306,0,0,1-.583-2.542V25.7h2.8v9.119a2.843,2.843,0,0,0,.187,1.189.629.629,0,0,0,.606.35,1.2,1.2,0,0,0,.7-.233,1.137,1.137,0,0,0,.49-.56V25.7Z" transform="translate(-238.624 -20.476)"/>
      <path id="Path_4337" data-name="Path 4337" class="cls-1" d="M246.98,8.262H244.2V23h-2.729V8.262H238.7V6h8.28Z" transform="translate(-214.164 -5.37)"/>
      <path id="Path_4338" data-name="Path 4338" class="cls-1" d="M317.88,10.507a3.147,3.147,0,0,0-.816-1.7,2.227,2.227,0,0,0-1.563-.536,2.514,2.514,0,0,0-1.446.443,2.853,2.853,0,0,0-1.026,1.143h-.023V3.3H310.3V20.932h2.309l.28-1.166h.07a2.384,2.384,0,0,0,.98,1,3.03,3.03,0,0,0,1.446.373,2.186,2.186,0,0,0,2.076-1.306,9.419,9.419,0,0,0,.676-4.082V13.8A18.7,18.7,0,0,0,317.88,10.507Zm-2.566,5.061a16.158,16.158,0,0,1-.117,2.122,2.373,2.373,0,0,1-.373,1.1.908.908,0,0,1-.7.327,1.155,1.155,0,0,1-.63-.163,1.348,1.348,0,0,1-.466-.49V11.416a1.908,1.908,0,0,1,.49-.84,1.131,1.131,0,0,1,.746-.327.756.756,0,0,1,.653.327,2.666,2.666,0,0,1,.327,1.12,18.807,18.807,0,0,1,.093,2.239v1.633Z" transform="translate(-269.065 -3.3)"/>
    </g>
  </g>
</svg>
